<svg xmlns="http://www.w3.org/2000/svg" version="1.1" xmlns:xlink="http://www.w3.org/1999/xlink" xmlns:svgjs="http://svgjs.dev/svgjs" width="2000" height="1999" viewBox="0 0 2000 1999"><g transform="matrix(1,0,0,1,-0.431486880466764,-0.4312711370263287)"><svg viewBox="0 0 343 343" data-background-color="#ca3433" preserveAspectRatio="xMidYMid meet" height="1999" width="2000" xmlns="http://www.w3.org/2000/svg" xmlns:xlink="http://www.w3.org/1999/xlink"><g id="tight-bounds" transform="matrix(1,0,0,1,0.0740000000000407,0.07400000000001228)"><svg viewBox="0 0 342.85155851775386 342.85155851775386" height="342.85155851775386" width="342.85155851775386"><g><svg></svg></g><g><svg viewBox="0 0 342.85155851775386 342.85155851775386" height="342.85155851775386" width="342.85155851775386"><g><path d="M0 171.426c0-94.676 76.75-171.426 171.426-171.426 94.676 0 171.426 76.75 171.426 171.426 0 94.676-76.75 171.426-171.426 171.426-94.676 0-171.426-76.75-171.426-171.426zM171.426 332.534c88.978 0 161.109-72.131 161.108-161.108 0-88.978-72.131-161.109-161.108-161.109-88.978 0-161.109 72.131-161.109 161.109 0 88.978 72.131 161.109 161.109 161.108z" data-fill-palette-color="tertiary" fill="#f7e1e1" stroke="transparent"></path><ellipse rx="164.56874808852186" ry="164.56874808852186" cx="171.42577925887693" cy="171.42577925887693" fill="#f7e1e1" stroke="transparent" stroke-width="0" fill-opacity="1" data-fill-palette-color="tertiary"></ellipse></g><g transform="matrix(1,0,0,1,64.84655864529837,114.22329546802271)"><svg viewBox="0 0 213.1584412271571 114.40496758170845" height="114.40496758170845" width="213.1584412271571"><g><svg viewBox="0 0 213.1584412271571 114.40496758170845" height="114.40496758170845" width="213.1584412271571"><g><svg viewBox="0 0 213.1584412271571 114.40496758170845" height="114.40496758170845" width="213.1584412271571"><g><svg viewBox="0 0 213.1584412271571 114.40496758170845" height="114.40496758170845" width="213.1584412271571"><g id="textblocktransform"><svg viewBox="0 0 213.1584412271571 114.40496758170845" height="114.40496758170845" width="213.1584412271571" id="textblock"><g><svg viewBox="0 0 213.1584412271571 114.40496758170845" height="114.40496758170845" width="213.1584412271571"><g transform="matrix(1,0,0,1,0,0)"><svg width="213.1584412271571" viewBox="4.1 -30.7 57.199999999999996 30.7" height="114.40496758170845" data-palette-color="#ca3433"><path d="M4.1 0L4.1-30.7 7.65-30.7 23.65-4.8 24.05-4.9 23.6-14.4 23.6-30.7 26.75-30.7 26.75 0 23.2 0 7.2-25.9 6.85-25.8 7.25-16.3 7.25 0 4.1 0ZM34.5 0L35.9-30.7 39.25-30.7 47.75-12.6 48.1-12.6 56.55-30.7 59.95-30.7 61.3 0 58.15 0 57.45-15.95 57.25-24.95 56.9-25.05 49.25-9.35 46.55-9.35 38.9-25.05 38.55-24.95 38.4-15.95 37.7 0 34.5 0Z" opacity="1" transform="matrix(1,0,0,1,0,0)" fill="#ca3433" class="wordmark-text-0" data-fill-palette-color="quaternary" id="text-0"></path></svg></g></svg></g></svg></g></svg></g></svg></g></svg></g></svg></g></svg></g><defs></defs></svg><rect width="342.85155851775386" height="342.85155851775386" fill="none" stroke="none" visibility="hidden"></rect></g></svg></g></svg>